<svg xmlns="http://www.w3.org/2000/svg" viewBox="0 0 513 513" xmlns:xlink="http://www.w3.org/1999/xlink"><use fill="#CC337C" xlink:href="#a" transform="translate(.834 .02)"/><use fill="#463DB0" xlink:href="#b" transform="rotate(-8.902 789.084 -16.876)"/><use fill-opacity=".5" xlink:href="#c" transform="rotate(-149.71 128.445 243.198)"/><use fill-opacity=".5" xlink:href="#d" transform="rotate(33.91 117.986 536.187)"/><use fill="#00D8FF" xlink:href="#e" transform="translate(223.515 224.278)"/><use fill="#463DB0" xlink:href="#f" transform="translate(228.64 229.39)"/><use fill="#00D8FF" xlink:href="#g" transform="translate(272.788 266.834)"/><defs><path id="a" d="M0 48C0 21.49 21.49 0 48 0h416c26.51 0 48 21.49 48 48v416c0 26.51-21.49 48-48 48H48c-26.51 0-48-21.49-48-48V48z"/><path id="b" d="M0 32C0 14.327 14.327 0 32 0h306c17.673 0 32 14.327 32 32v306c0 17.673-14.327 32-32 32H32c-17.673 0-32-14.327-32-32V32z"/><path id="c" d="M-.998 16.43c-.957.554-1.286 1.776-.735 2.734.55.957 1.773 1.286 2.73.735l-1.995-3.47zm100.93 3.407c.922.607 2.163.35 2.77-.572.606-.923.35-2.163-.573-2.77l-2.2 3.342zM.998 19.9C21.992 7.814 37.686 1.987 52.544 2c14.82.012 29.14 5.836 47.388 17.836l2.197-3.342C83.62 4.324 68.51-1.986 52.54-2 36.62-2.013 20.172 4.246-.998 16.43L.998 19.9z"/><path id="d" d="M-.922 19.713c-.98.51-1.362 1.717-.853 2.697.51.98 1.717 1.362 2.697.853l-1.844-3.55zm132.352 3.495c.95.564 2.177.25 2.74-.7.565-.95.252-2.176-.698-2.74l-2.042 3.44zM.922 23.263C28.47 8.957 49.19 1.986 68.885 2c19.663.014 38.59 6.992 62.545 21.208l2.042-3.44C109.244 5.39 89.584-1.985 68.888-2 48.224-2.015 26.812 5.31-.922 19.713l1.844 3.55z"/><path id="e" d="M98.64 34.596c-1.276-.438-2.564-.843-3.86-1.216.214-.875.413-1.753.595-2.635C98.3 16.555 96.387 5.122 89.86 1.358c-6.258-3.61-16.494.154-26.832 9.15-1.018.89-2.014 1.803-2.987 2.742-.65-.625-1.31-1.237-1.98-1.836-10.84-9.62-21.7-13.674-28.22-9.9-6.25 3.62-8.1 14.37-5.47 27.817.26 1.34.56 2.66.89 3.98-1.53.44-3.02.9-4.44 1.4C8.12 39.13 0 46.07 0 53.27c0 7.433 8.708 14.89 21.938 19.412 1.073.365 2.154.704 3.244 1.015-.354 1.418-.668 2.847-.943 4.283-2.51 13.216-.55 23.71 5.68 27.306 6.44 3.714 17.25-.103 27.77-9.305.83-.72 1.67-1.49 2.5-2.3 1.05 1.02 2.13 2.01 3.24 2.96 10.193 8.78 20.263 12.32 26.494 8.71 6.435-3.72 8.526-15 5.81-28.71-.206-1.04-.448-2.11-.72-3.2.76-.22 1.505-.45 2.232-.69 13.75-4.557 22.7-11.924 22.7-19.46 0-7.224-8.375-14.21-21.33-18.672z"/><path id="f" d="M90.533 62.75c-.656.217-1.33.426-2.015.63-1.52-4.807-3.568-9.92-6.075-15.2 2.393-5.154 4.362-10.2 5.838-14.976 1.23.356 2.42.73 3.57 1.126 11.1 3.82 17.88 9.472 17.88 13.826 0 4.638-7.31 10.66-19.19 14.593zm-4.927 9.763c1.2 6.064 1.37 11.548.576 15.834-.715 3.852-2.15 6.42-3.928 7.448-3.78 2.188-11.867-.657-20.586-8.16-1-.86-2.007-1.78-3.017-2.75 3.39-3.698 6.76-7.997 10.06-12.77 5.8-.514 11.28-1.356 16.25-2.504.25.99.46 1.96.65 2.91zm-49.83 22.904c-3.694 1.304-6.636 1.34-8.414.316-3.785-2.182-5.357-10.608-3.212-21.91.255-1.335.548-2.663.876-3.983 4.914 1.087 10.354 1.87 16.168 2.34 3.32 4.67 6.795 8.965 10.298 12.724-.744.72-1.507 1.422-2.286 2.105-4.655 4.06-9.32 6.95-13.43 8.4zM18.47 62.72c-5.85-2-10.68-4.597-13.992-7.433C1.503 52.74 0 50.21 0 48.157c0-4.37 6.513-9.942 17.376-13.73 1.363-.472 2.74-.905 4.13-1.298 1.5 4.88 3.47 9.98 5.846 15.15-2.407 5.24-4.404 10.42-5.92 15.36-.994-.29-1.982-.6-2.96-.93zm5.802-39.486C22.017 11.71 23.514 3.02 27.282.838c4.014-2.324 12.89.99 22.243 9.295.598.53 1.2 1.087 1.8 1.662-3.485 3.742-6.93 8.003-10.22 12.647-5.642.523-11.043 1.363-16.01 2.488-.304-1.225-.58-2.458-.823-3.697zm51.75 12.778c-1.173-2.026-2.39-4.026-3.648-6 3.828.484 7.495 1.126 10.94 1.913-1.035 3.313-2.324 6.778-3.84 10.33-1.11-2.104-2.26-4.185-3.452-6.243zM54.918 15.457c2.364 2.56 4.732 5.42 7.06 8.523-4.724-.223-9.455-.224-14.18-.003 2.332-3.074 4.72-5.93 7.12-8.52zm-21.24 20.59c-1.176 2.042-2.305 4.11-3.385 6.205-1.493-3.54-2.77-7.02-3.812-10.382 3.43-.766 7.08-1.392 10.88-1.867-1.27 1.986-2.5 4-3.68 6.044zm3.788 30.627c-3.93-.438-7.634-1.033-11.056-1.778 1.06-3.42 2.364-6.975 3.89-10.59 1.084 2.095 2.218 4.165 3.4 6.207 1.206 2.083 2.462 4.138 3.766 6.16zM55.06 81.216c-2.43-2.62-4.852-5.52-7.218-8.638 2.297.09 4.64.136 7.02.136 2.444 0 4.862-.055 7.24-.16-2.335 3.174-4.694 6.077-7.042 8.662zM79.522 54.12c1.603 3.656 2.955 7.192 4.03 10.555-3.48.793-7.236 1.433-11.193 1.907 1.26-2.01 2.49-4.045 3.68-6.105 1.2-2.092 2.36-4.212 3.48-6.356zm-7.92 3.797c-1.817 3.157-3.736 6.254-5.755 9.287-3.56.254-7.238.385-10.986.385-3.73 0-7.36-.12-10.86-.35-2.07-3.03-4.02-6.13-5.86-9.3-1.82-3.16-3.53-6.38-5.12-9.67 1.58-3.29 3.28-6.52 5.11-9.68 1.82-3.16 3.77-6.25 5.82-9.26 3.57-.27 7.23-.41 10.93-.41 3.72 0 7.38.14 10.95.41 2.036 3.005 3.964 6.084 5.78 9.23 1.83 3.15 3.554 6.36 5.173 9.623-1.602 3.297-3.322 6.536-5.155 9.71zM82.176.685c4.018 2.317 5.58 11.66 3.056 23.913-.164.798-.344 1.593-.538 2.385-4.977-1.148-10.382-2.003-16.04-2.534-3.298-4.7-6.714-8.97-10.142-12.66.898-.87 1.818-1.71 2.758-2.53C70.126 1.55 78.404-1.49 82.175.68z"/><path id="g" d="M10.713 0c5.917 0 10.713 4.797 10.713 10.713 0 5.917-4.796 10.714-10.713 10.714C4.797 21.427 0 16.63 0 10.713 0 4.797 4.797 0 10.713 0"/></defs></svg>